<svg width="1363" height="319" viewBox="0 0 1363 319" fill="none" xmlns="http://www.w3.org/2000/svg">
<path d="M106.255 318.766C71.6543 318.766 45.2266 311.274 26.9725 296.289C8.99082 281.304 -2.26386e-05 259.372 -2.26386e-05 230.493V211.285L76.8308 196.164V219.867C76.8308 231.582 78.738 240.028 82.5523 245.205C86.639 250.109 93.314 252.561 102.577 252.561C109.933 252.561 115.655 249.7 119.742 243.979C123.828 238.257 125.872 230.22 125.872 219.867V23.7031H203.111V223.954C203.111 253.923 194.529 277.218 177.365 293.837C160.2 310.457 136.497 318.766 106.255 318.766ZM241.303 311.819V96.0385H314.865V311.819H241.303ZM278.084 80.5089C266.096 80.5089 256.288 76.5584 248.659 68.6573C241.031 60.7563 237.216 51.2205 237.216 40.0501C237.216 28.8796 241.031 19.4801 248.659 11.8515C256.288 3.9505 266.096 -2.41776e-05 278.084 -2.41776e-05C290.072 -2.41776e-05 299.88 3.9505 307.509 11.8515C315.137 19.4801 318.951 28.8796 318.951 40.0501C318.951 51.2205 315.137 60.7563 307.509 68.6573C299.88 76.5584 290.072 80.5089 278.084 80.5089ZM440.602 315.906C417.717 315.906 400.144 310.593 387.883 299.967C375.896 289.069 369.902 273.54 369.902 253.378V50.6756L443.463 22.8858V236.214C443.463 242.208 444.962 246.703 447.959 249.7C451.228 252.425 455.86 253.787 461.853 253.787C464.033 253.787 466.485 253.651 469.21 253.378C471.934 252.833 474.659 252.016 477.383 250.926V310.184C471.117 312.091 464.987 313.453 458.993 314.271C452.999 315.361 446.869 315.906 440.602 315.906ZM338.025 152.436V96.0385H479.427V152.436H338.025ZM529.266 311.819L492.076 96.0385H566.455L584.437 264.004L607.323 96.0385H701.318L724.203 264.004L742.185 96.0385H816.564L779.375 311.819H675.98L654.32 143.853L632.66 311.819H529.266ZM839.948 311.819V96.0385H913.509V311.819H839.948ZM876.729 80.5089C864.741 80.5089 854.933 76.5584 847.304 68.6573C839.675 60.7563 835.861 51.2205 835.861 40.0501C835.861 28.8796 839.675 19.4801 847.304 11.8515C854.933 3.9505 864.741 -2.41776e-05 876.729 -2.41776e-05C888.716 -2.41776e-05 898.525 3.9505 906.153 11.8515C913.782 19.4801 917.596 28.8796 917.596 40.0501C917.596 51.2205 913.782 60.7563 906.153 68.6573C898.525 76.5584 888.716 80.5089 876.729 80.5089ZM1030.66 316.723C1005.05 316.723 983.803 311.546 966.912 301.193C950.02 290.84 939.53 274.902 935.444 253.378L1004.92 240.301C1006.83 249.292 1010.09 256.103 1014.73 260.734C1019.63 265.366 1026.17 267.682 1034.34 267.682C1041.43 267.682 1046.74 266.32 1050.28 263.595C1054.1 260.871 1056 256.92 1056 251.744C1056 247.657 1054.91 244.115 1052.73 241.118C1050.55 237.849 1046.06 235.26 1039.25 233.353L993.884 221.502C978.899 217.687 966.639 210.604 957.103 200.251C947.84 189.625 943.208 176.275 943.208 160.2C943.208 146.306 946.887 134.182 954.243 123.828C961.871 113.475 972.497 105.438 986.119 99.7166C1000.01 93.9952 1016.36 91.1344 1035.16 91.1344C1050.15 91.1344 1064.04 93.1778 1076.85 97.2645C1089.65 101.079 1100.41 107.073 1109.13 115.246C1117.85 123.147 1123.57 133.364 1126.29 145.897L1058.45 161.018C1056 153.662 1052.6 148.349 1048.24 145.079C1043.88 141.81 1038.43 140.175 1031.89 140.175C1025.9 140.175 1021.27 141.538 1018 144.262C1015 146.987 1013.5 150.392 1013.5 154.479C1013.5 158.293 1014.73 161.426 1017.18 163.879C1019.63 166.058 1023.17 167.829 1027.8 169.191L1067.85 179.408C1081.2 182.678 1092.24 187.173 1100.96 192.894C1109.68 198.616 1116.21 205.836 1120.57 214.554C1125.2 223 1127.52 232.945 1127.52 244.387C1127.52 260.19 1123.3 273.54 1114.85 284.438C1106.68 295.063 1095.24 303.1 1080.52 308.549C1066.08 313.998 1049.46 316.723 1030.66 316.723ZM1258.35 316.723C1235.2 316.723 1214.9 311.955 1197.46 302.419C1180.3 292.884 1166.95 279.533 1157.41 262.369C1147.88 244.932 1143.11 224.635 1143.11 201.477C1143.11 179.953 1147.88 160.882 1157.41 144.262C1167.22 127.643 1180.57 114.701 1197.46 105.438C1214.63 95.9023 1234.11 91.1344 1255.9 91.1344C1277.43 91.1344 1296.22 95.4936 1312.3 104.212C1328.37 112.93 1340.77 125.327 1349.49 141.401C1358.48 157.204 1362.97 176.003 1362.97 197.799C1362.97 201.613 1362.7 205.972 1362.16 210.876C1361.89 215.78 1361.48 219.867 1360.93 223.136H1175.8V178.182H1313.53L1292.68 184.312C1292.68 175.321 1291.18 167.829 1288.19 161.835C1285.19 155.569 1280.83 150.937 1275.11 147.94C1269.39 144.943 1262.17 143.445 1253.45 143.445C1245.28 143.445 1238.19 145.079 1232.2 148.349C1226.21 151.346 1221.57 155.841 1218.3 161.835C1215.31 167.829 1213.81 175.049 1213.81 183.495V218.641C1213.81 230.356 1217.62 240.164 1225.25 248.066C1232.88 255.967 1244.32 259.917 1259.58 259.917C1269.39 259.917 1278.11 257.874 1285.74 253.787C1293.36 249.7 1299.49 243.706 1304.13 235.805L1358.48 263.595C1352.49 274.766 1344.31 284.438 1333.96 292.611C1323.88 300.512 1312.3 306.506 1299.22 310.593C1286.42 314.68 1272.79 316.723 1258.35 316.723Z" fill="white" fill-opacity="0.06"/>
</svg>
